<?xml version="1.0" ?><!DOCTYPE svg  PUBLIC '-//W3C//DTD SVG 1.1//EN'  'http://www.w3.org/Graphics/SVG/1.1/DTD/svg11.dtd'><svg xmlns="http://www.w3.org/2000/svg" xmlns:xlink="http://www.w3.org/1999/xlink" version="1.1" id="Layer_1" width="248.867" height="218.648" viewBox="0 0 248.867 218.648" overflow="visible" enable-background="new 0 0 248.867 218.648" xml:space="preserve"><path fill="#D4A5A5" d="M23.681,104.814c0,26.517,1.13,54.158,14.639,75.134c15.037,23.352,43.225,34.701,86.175,34.701  c40.008,0,67.271-11.314,83.344-34.594c15.485-22.426,17.472-51.989,17.472-75.241C225.309,49.225,180.083,4,124.495,4  S23.681,49.225,23.681,104.814z"/><path opacity="0.53" fill="#BA9191" enable-background="new    " d="M224.898,90.068c-0.309,22.394-3.026,49.443-17.438,70.313  c-16.073,23.279-43.336,34.595-83.344,34.595c-42.95,0-71.138-11.351-86.175-34.701c-8.406-13.053-12.018-28.688-13.547-45.025  c0.44,23.079,2.861,46.213,14.547,64.358c15.037,23.352,43.225,34.701,86.175,34.701c40.008,0,67.271-11.314,83.344-34.595  c15.485-22.425,17.472-51.988,17.472-75.24C225.934,99.582,225.575,94.774,224.898,90.068z"/><path fill="#BA9191" d="M71.089,151.805c0,0,6.345,33.194,30.668,33.194c18.676,0,23.77-5.405,23.77-5.405s2.44,6.652,25.406,5.405  c23.097-1.254,25.832-33.194,25.832-33.194H71.089z"/><path fill="#F0F0FF" d="M177.05,148.412c0,14.017-13.887,25.379-31.017,25.379c-8.655,0-16.479-2.9-22.104-7.579  c-5.626,4.679-13.451,7.579-22.106,7.579c-17.131,0-31.018-11.362-31.018-25.379c0,0-3.739-35.334,53.394-35.334  C181.333,113.078,177.05,148.412,177.05,148.412z"/><path fill="#6E6E96" d="M134.928,131.039c0,5.793-4.695,10.489-10.488,10.489c-5.793,0-10.489-4.696-10.489-10.489  c0-5.791,4.696-6.466,10.489-6.466C130.23,124.573,134.928,125.248,134.928,131.039z"/><ellipse fill="#6E6E96" cx="98.793" cy="75.319" rx="9.222" ry="12.56"/><ellipse fill="#6E6E96" cx="146.55" cy="75.319" rx="9.222" ry="12.56"/><path fill="#D4A5A5" d="M56.145,30.206C56.145,30.206,56.157,30.198,56.145,30.206C56.168,30.188,56.145,30.206,56.145,30.206  C30.425,49,0.812,101.866,4.288,132.528c6.558,57.846,51.777,54.068,51.777,38.104L56.145,30.206z"/><path opacity="0.53" fill="#BA9191" enable-background="new    " d="M3.555,131.868c6.672,58.922,52.673,55.074,52.673,38.813  l0.079-139.217C30.143,50.609,0.019,100.637,3.555,131.868z M49.417,37.131l-0.051,117.955c0,12.854-28.053,15.896-32.264-30.68  C14.871,99.717,32.902,52.263,49.417,37.131z"/><path fill="#D4A5A5" d="M192.721,31.259c0,0,1.025,1.021,1.036,1.032c-0.021-0.021-0.036-0.032-0.036-0.032  c22.547,16.356,54.334,68.659,50.857,99.321c-6.559,57.848-51.778,54.067-51.778,38.104L192.721,31.259z"/><path opacity="0.53" fill="#BA9191" enable-background="new    " d="M192.721,31.259l-0.035,138.549  c0,15.964,45.217,19.74,51.775-38.104C247.938,101.041,218.439,50.052,192.721,31.259z M231.145,124.375  c-4.139,45.727-35.682,35.739-35.682,23.12l-0.051-111.003C211.646,51.348,233.338,100.138,231.145,124.375z"/><path opacity="0.2" fill="#6E6E96" enable-background="new    " d="M161.439,120.194c14.347,8.259,12.589,20.421,12.589,20.421  c0,11.06-13.117,20.025-29.3,20.025c-8.176,0-15.563-2.288-20.878-5.979c-5.315,3.691-12.706,5.979-20.882,5.979  c-16.182,0-29.299-8.966-29.299-20.025c0,0-0.455-3.598,1.462-8.209c-4.919,8.226-4.106,15.911-4.106,15.911  c0,14.106,14.016,25.545,31.307,25.545c8.736,0,16.635-2.92,22.313-7.629c5.678,4.709,13.573,7.629,22.309,7.629  c17.291,0,31.308-11.438,31.308-25.545C178.259,148.316,180.405,130.623,161.439,120.194z M129.354,112.826  c2.999,0.11,5.803,0.309,8.414,0.592C135.139,113.126,132.336,112.928,129.354,112.826z"/></svg>